{
	"patcher" : 	{
		"fileversion" : 1,
		"appversion" : 		{
			"major" : 5,
			"minor" : 1,
			"revision" : 9
		}
,
		"rect" : [ 298.0, 152.0, 364.0, 342.0 ],
		"bglocked" : 0,
		"defrect" : [ 298.0, 152.0, 364.0, 342.0 ],
		"openrect" : [ 0.0, 0.0, 0.0, 0.0 ],
		"openinpresentation" : 0,
		"default_fontsize" : 14.0,
		"default_fontface" : 0,
		"default_fontname" : "Arial",
		"gridonopen" : 0,
		"gridsize" : [ 20.0, 20.0 ],
		"gridsnaponopen" : 0,
		"toolbarvisible" : 1,
		"boxanimatetime" : 200,
		"imprint" : 0,
		"enablehscroll" : 1,
		"enablevscroll" : 1,
		"devicewidth" : 0.0,
		"boxes" : [ 			{
				"box" : 				{
					"maxclass" : "message",
					"text" : "val 3.14",
					"outlettype" : [ "" ],
					"fontsize" : 14.0,
					"presentation_rect" : [ 163.0, 58.0, 0.0, 0.0 ],
					"patching_rect" : [ 160.0, 60.0, 60.0, 21.0 ],
					"numinlets" : 2,
					"id" : "obj-2",
					"fontname" : "Arial",
					"numoutlets" : 1
				}

			}
, 			{
				"box" : 				{
					"maxclass" : "message",
					"text" : "val jojo",
					"outlettype" : [ "" ],
					"fontsize" : 14.0,
					"patching_rect" : [ 100.0, 60.0, 54.0, 21.0 ],
					"numinlets" : 2,
					"id" : "obj-5",
					"fontname" : "Arial",
					"numoutlets" : 1
				}

			}
, 			{
				"box" : 				{
					"maxclass" : "button",
					"outlettype" : [ "bang" ],
					"patching_rect" : [ 60.0, 60.0, 20.0, 20.0 ],
					"numinlets" : 1,
					"id" : "obj-3",
					"numoutlets" : 1
				}

			}
, 			{
				"box" : 				{
					"maxclass" : "newobj",
					"text" : "jojoValue",
					"fontsize" : 14.0,
					"patching_rect" : [ 60.0, 200.0, 67.0, 23.0 ],
					"numinlets" : 1,
					"id" : "obj-1",
					"fontname" : "Arial",
					"numoutlets" : 0
				}

			}
 ],
		"lines" : [ 			{
				"patchline" : 				{
					"source" : [ "obj-2", 0 ],
					"destination" : [ "obj-1", 0 ],
					"hidden" : 0,
					"midpoints" : [ 169.5, 173.0, 69.5, 173.0 ]
				}

			}
, 			{
				"patchline" : 				{
					"source" : [ "obj-5", 0 ],
					"destination" : [ "obj-1", 0 ],
					"hidden" : 0,
					"midpoints" : [  ]
				}

			}
, 			{
				"patchline" : 				{
					"source" : [ "obj-3", 0 ],
					"destination" : [ "obj-1", 0 ],
					"hidden" : 0,
					"midpoints" : [  ]
				}

			}
 ]
	}

}
